# xmcd
# Copyright (C) 1995-1998 Ti Kan
#
# Track frame offsets:
#       150
#       19031
#       42123
#       49833
#       61776
#       80467
#       107297
#       123492
#
# Disc length: 1820 seconds
#
# Revision: 0
# Processed by: cddbd v1.5.2PL0 Copyright (c) Steve Scherf et al.
# Submitted via: CD-Transfer v1.0
#
DISCID=58071a08
DTITLE=Honey For Petzi - Honey For Petzi
DYEAR=97
DGENRE=
TTITLE0=Secret Kiss At A Spaghetti Party
TTITLE1=Kitchen S Tv
TTITLE2=Panama City
TTITLE3=Biostar
TTITLE4=Worms
TTITLE5=Tamagotchi
TTITLE6=Daily
TTITLE7=Robydog
EXTD=
EXTT0=
EXTT1=
EXTT2=
EXTT3=
EXTT4=
EXTT5=
EXTT6=
EXTT7=
PLAYORDER=
